# xmcd CD database file
#
# Track frame offsets:
#	150
#	24050
#	43364
#	70789
#	86555
#	99488
#	116416
#	121231
#	142001
#	161168
#
# Disc length: 2348 seconds
#
# Revision: 0
# Processed by: cddbd v1.5.2PL0 Copyright (c) Steve Scherf et al.
# Submitted via: CDex 1.70beta2
#
DISCID=81092a0a
DTITLE=Venegoni and Co.  - RUMORE ROSSO
DYEAR=1977
DGENRE=Jazz
TTITLE0=Coesione
TTITLE1=Danza Della Mutazione Perenne
TTITLE2=Liberta Definitiva
TTITLE3=Memoria
TTITLE4=Ubud
TTITLE5=Positivo E...
TTITLE6=Coda Tronca
TTITLE7=Liberta Provvisoria
TTITLE8=Cuica
TTITLE9=Morti Di Ideologia
EXTD=YEAR: 1977
EXTT0=
EXTT1=
EXTT2=
EXTT3=
EXTT4=
EXTT5=
EXTT6=
EXTT7=
EXTT8=
EXTT9=
PLAYORDER=
